<svg width="138" height="28" viewBox="0 0 138 28" fill="none" xmlns="http://www.w3.org/2000/svg">
<path d="M3 3H0L0 25H15.7145V22H10.5H3L3 3Z" fill="white"/>
<path d="M29.6246 5.88086H26.7145V22.8809H29.7145V21.3809V20.3809V19.6915L29.6246 5.88086Z" fill="white"/>
<path d="M21.7145 2.88086H19.7145V6L35.7145 6V2.88086L30.2145 2.88086L22.6246 2.88086L21.7145 2.88086Z" fill="white"/>
<path d="M21.7145 21.8809H19.7145V25H35.7145V21.8809H30.2145H22.6246H21.7145Z" fill="white"/>
<path d="M57.9312 3V25H55.2391L42.7207 7.72656H42.4964V25H39.7145V3H42.4066L54.9699 20.3164H55.1942V3H57.9312Z" fill="white"/>
<path d="M82.9312 3L61.9312 3V9.5V15L79.9312 15V22L61.9312 22V25L82.9312 25V21V12L64.9312 12V6L82.9312 6V3Z" fill="white"/>
<circle cx="100.931" cy="14" r="9" stroke="white" stroke-opacity="0.15" stroke-width="10"/>
<circle opacity="0.6" cx="100.931" cy="14" r="8" stroke="white" stroke-width="2"/>
<path d="M137.148 2V24H134.456L121.937 6.72656H121.713V24H118.931V2H121.623L134.187 19.3164H134.411V2H137.148Z" fill="white"/>
</svg>
